<svg width="512" height="512" viewBox="0 0 512 512" fill="none" xmlns="http://www.w3.org/2000/svg" xmlns:xlink="http://www.w3.org/1999/xlink" class=""><rect id="«r9»" width="512" height="512" x="0" y="0" rx="128" fill="url(#«ra»)" stroke="#FFFFFF" stroke-width="0" stroke-opacity="100%" paint-order="stroke"></rect><clipPath id="clip"><use xlink:href="#«r9»"></use></clipPath><defs><linearGradient id="«ra»" gradientUnits="userSpaceOnUse" gradientTransform="rotate(45)" style="transform-origin: center center;"><stop stop-color="#8E2DE2"></stop><stop offset="1" stop-color="#4A00E0"></stop></linearGradient><radialGradient id="«rb»" cx="0" cy="0" r="1" gradientUnits="userSpaceOnUse" gradientTransform="translate(256) rotate(90) scale(512)"><stop stop-color="white"></stop><stop offset="1" stop-color="white" stop-opacity="0"></stop></radialGradient></defs><svg xmlns="http://www.w3.org/2000/svg" fill="none" viewBox="0 0 16 16" width="352" height="352" x="80" y="80" alignment-baseline="middle" style="color: rgb(255, 255, 255);"><path fill="currentColor" fill-rule="evenodd" d="M13.965 13.56a1.994 1.994 0 0 0 1.676-1.6c.16-.92.32-2.28.359-3.96 0-1.68-.2-3.04-.36-3.96a1.994 1.994 0 0 0-1.675-1.6C12.608 2.24 10.454 2 7.98 2s-4.668.24-5.985.44c-.838.12-1.516.76-1.676 1.6C.16 4.96 0 6.32 0 8c0 1.68.16 3.04.32 3.96.159.84.837 1.48 1.675 1.6 1.357.2 3.551.44 5.985.44 2.474 0 4.668-.24 5.985-.44ZM11.172 8 6.384 5.2v5.6L11.172 8Z" clip-rule="evenodd"></path></svg></svg>